PathFileType	4	(X/Y/Z)	C:/Users/beibeiliu/ov580/test_trc/User3\sequence.4_training_dense_right.trc
DataRate	CameraRate	NumFrames	NumMarkers	Units	OrigDataRate	OrigDataStartFrame	OrigNumFrames
120	120	22	19	mm	120	32	93
Frame#	Time	ThumbCMC			ThumbMCP			ThumbIP			ThumbTip			IndexMCP			IndexPIP			IndexTip			MiddleMCP			MiddlePIP			MiddleTip			RingMCP			RingPIP			RingTip			PinkyMCP			PinkyPIP			PinkyTip			BackHand1			BackHand2			BackHand3	
		X0	Y0	Z0	X1	Y1	Z1	X2	Y2	Z2	X3	Y3	Z3	X4	Y4	Z4	X5	Y5	Z5	X6	Y6	Z6	X7	Y7	Z7	X8	Y8	Z8	X9	Y9	Z9	X10	Y10	Z10	X11	Y11	Z11	X12	Y12	Z12	X13	Y13	Z13	X14	Y14	Z14	X15	Y15	Z15	X16	Y16	Z16	X17	Y17	Z17	X18	Y18	Z18	
31	0.258333	41.5326	-16.5018	-3.97518	22.5708	-22.6797	-30.5107	11.5022	-29.0211	-54.055	2.13356	-36.1556	-74.8953	42.7358	-12.3297	-81.0918	36.4742	-17.3611	-108.347	35.8535	-21.8543	-132.129	59.9156	-13.1627	-95.278	54.6351	-19.1101	-118.632	43.4643	-22.8208	-149.374	75.3584	-19.896	-89.9775	71.4699	-23.3801	-112.497	64.671	-26.7008	-134.606	95.4349	-26.973	-75.0171	88.3423	-29.0583	-94.602	82.6832	-29.4978	-116.775	89.4534	-4.17427	-40.182	97.3472	3.70277	-10.771	65.1007	4.20171	-20.6647	
32	0.266667	40.7319	-12.9206	-0.874462	21.6876	-21.7128	-29.9535	8.98949	-28.6557	-55.6039	4.14211	-37.3722	-75.7359	43.6878	-3.46987	-79.9196	34.1061	-11.4537	-109.741	31.8904	-20.9376	-129.238	60.8517	-6.03305	-90.5977	50.7284	-14.5983	-118.468	45.9227	-27.537	-146.854	78.2522	-12.586	-87.777	71.3466	-18.2073	-111.521	67.0379	-30.5061	-137.613	96.2888	-19.8337	-73.6042	93.6198	-24.3065	-96.9913	82.435	-31.4537	-120.048	95.3928	2.9607	-37.7968	103.744	4.10009	-11.206	67.1978	9.56357	-21.4126	
33	0.275	44.0979	-9.24931	-2.1236	23.8036	-19.9823	-24.1595	10.746	-28.8154	-50.331	4.25388	-36.4368	-74.5933	42.2906	5.59772	-82.2146	36.3227	-4.82681	-106.555	33.4166	-24.1273	-125.329	65.772	1.11856	-88.9931	52.7698	-10.8537	-116.803	42.399	-35.072	-136.153	80.9727	-5.30869	-89.957	74.4134	-15.5008	-112.554	68.9389	-37.167	-128.862	98.3171	-12.4537	-76.2519	93.4586	-19.6574	-97.9954	83.3834	-35.7262	-119.598	97.3168	10.8771	-35.4104	103.647	9.7219	-9.73322	67.0278	15.4299	-13.9364	
34	0.283333	47.2392	-5.48664	-5.33402	25.4432	-16.6565	-28.4887	16.8602	-25.6603	-50.3858	6.93275	-34.7558	-75.1774	51.141	9.68245	-80.5511	36.781	-4.85215	-108.578	32.1698	-28.3204	-117.62	63.1763	7.49542	-91.5934	55.0155	-10.0826	-114.397	45.6586	-47.6722	-119.912	82.9082	-0.188529	-87.1356	77.4202	-16.0178	-109.283	64.7239	-48.2466	-114.645	100.927	-9.58355	-76.1392	94.5071	-22.1794	-98.0912	81.0367	-43.2333	-107.371	102.233	11.2166	-33.0684	107.372	10.5491	-4.93786	71.3945	19.4155	-16.0772	
35	0.291667	52.6711	-4.75419	-4.16621	31.0582	-15.8762	-32.5327	17.6062	-25.3312	-54.2174	16.4366	-34.1985	-76.4321	52.2848	11.6445	-85.3493	46.8621	-7.62921	-106.295	35.6666	-36.4806	-106.259	70.8771	6.24915	-95.0881	61.0091	-18.2131	-113.531	57.3395	-53.2477	-99.9725	92.2336	-2.5903	-88.0937	79.0733	-26.0885	-107.405	73.7101	-56.7674	-92.523	105.446	-10.4324	-80.0783	98.6451	-26.3736	-95.2622	86.1255	-53.9285	-89.9967	104.328	15.902	-34.5312	112.939	12.0751	-3.9181	79.4137	21.1609	-16.9452	
36	0.3	56.9897	-5.3075	-10.0307	39.2138	-17.4617	-31.4199	23.6062	-24.6373	-60.7923	19.1233	-34.004	-79.3537	62.4344	7.30183	-86.8182	49.7224	-15.8981	-105.951	48.7778	-43.5817	-91.4931	75.0132	1.68483	-95.3485	69.3264	-26.3555	-107.996	65.4956	-53.2469	-76.1764	97.131	-7.0219	-88.7703	87.8222	-36.9554	-99.1949	82.0083	-53.599	-71.5835	116.322	-15.0998	-78.5571	104.127	-41.5256	-91.3256	93.9578	-56.563	-74.3672	109.826	13.4198	-36.3434	115.592	13.3532	-9.90867	83.6745	19.5192	-15.7475	
37	0.308333	63.7536	-9.04838	-7.43662	41.835	-17.1337	-31.3745	25.7911	-22.3111	-60.8204	20.4039	-30.0233	-80.3074	67.6575	2.92977	-85.6332	60.7503	-24.4864	-101.339	56.544	-44.1844	-72.8416	85.0077	-3.80683	-94.8927	80.6209	-35.5094	-99.4241	82.0292	-44.1106	-60.1135	104.855	-11.2551	-88.0366	95.9115	-43.6342	-87.7647	91.0238	-46.7909	-57.3575	123.299	-19.7527	-80.2174	111.005	-46.0479	-80.6896	102.105	-49.3886	-52.7009	117.471	15.1881	-35.2537	124.288	12.6653	-9.44669	87.5068	18.2596	-20.923	
38	0.316667	67.4096	-8.07734	-7.7826	46.7334	-12.833	-31.6311	28.9091	-14.7836	-58.6479	20.2123	-21.6859	-75.4436	74.6283	-2.18889	-89.2144	67.4179	-32.3322	-93.202	70.953	-37.3271	-60.1913	95.9128	-7.39004	-92.0498	86.601	-38.583	-91.005	88.0262	-34.7656	-49.1528	109.375	-16.9646	-86.5426	106.27	-44.7755	-79.8736	99.4608	-38.2943	-46.4146	129.535	-19.5506	-76.5283	120.867	-45.2277	-72.8071	112.705	-39.969	-44.589	122.3	14.6903	-35.0564	125.408	12.5854	-7.78463	93.3902	19.0997	-19.5887	
39	0.325	67.2199	-6.33972	-9.76722	50.0411	-6.92907	-37.0629	34.8834	-7.92473	-60.1166	21.7982	-12.9663	-75.02	78.337	-0.95584	-85.8743	73.354	-34.2895	-90.8518	76.4874	-33.1872	-55.6376	97.1275	-9.82284	-93.1151	94.8445	-41.6831	-83.2709	97.8395	-27.2488	-46.3581	117.83	-19.5765	-85.252	110.374	-44.6281	-71.7803	106.024	-29.7837	-41.2503	131.148	-19.0713	-76.461	123.637	-44.2085	-64.4802	121.131	-28.9514	-37.4823	128.922	17.098	-37.6343	131.776	12.1672	-5.79389	94.8998	20.0266	-21.2355	
40	0.333333	70.5271	-0.189387	-15.0742	53.1812	-1.18146	-36.6767	34.5503	0.228877	-59.1693	23.0561	-0.271266	-77.5118	81.8534	2.08532	-89.9074	81.813	-31.3313	-90.1837	84.5739	-24.915	-54.624	105.229	-5.42126	-93.4222	98.2217	-35.6574	-86.2672	101.092	-22.0318	-47.2079	123.649	-11.9972	-83.8337	115.192	-39.4563	-72.1028	113.65	-26.144	-41.4599	138.691	-16.9979	-77.8992	129.363	-39.4063	-62.7182	128.717	-23.2343	-37.4305	128.729	22.1681	-40.1649	133.032	18.6436	-8.34461	100.228	21.4673	-23.1986	
41	0.341667	75.9424	6.21337	-17.5541	55.0232	7.79904	-36.6797	39.9312	12.629	-63.1672	24.0683	13.2379	-81.2619	84.5458	10.3921	-93.566	84.7152	-23.1488	-93.2708	85.5405	-19.9704	-60.5064	105.929	1.37302	-97.8894	105.497	-28.3825	-87.9587	108.327	-13.6955	-50.4991	126.019	-5.93923	-88.8616	118.909	-31.0894	-78.0577	117.784	-15.9948	-44.0605	143.222	-6.68493	-79.8434	129.9	-29.6805	-65.4984	133.445	-16.8293	-41.1337	133.707	30.6408	-40.0542	135.567	23.2028	-13.5056	99.7738	28.8774	-24.4729	
42	0.35	82.5573	11.7026	-22.8375	63.2363	12.9956	-42.0988	44.4582	19.1456	-67.8019	29.5768	20.8967	-85.657	96.4089	13.2443	-99.2978	94.5379	-16.3318	-99.3655	94.7272	-15.6657	-66.1256	116.849	6.73147	-101.405	113.9	-22.1799	-94.6982	112.916	-11.7528	-54.5135	130.549	2.42244	-90.5063	126.757	-26.0173	-79.52	120.711	-15.8016	-49.6427	150.844	-1.52731	-82.6847	141.02	-25.7928	-71.6137	137.642	-11.1496	-42.8011	138.829	36.1903	-42.5783	141.59	29.5614	-15.8027	105.542	34.6369	-31.2976	
43	0.358333	85.4121	9.36131	-26.2548	71.4703	9.75858	-48.532	53.5739	13.2799	-71.5061	40.8032	13.7737	-88.5466	104.662	13.3254	-99.9908	100.486	-22.7975	-99.4948	100.811	-18.7076	-68.5686	123.451	7.76788	-100.683	117.864	-25.421	-95.5298	116.92	-14.8883	-58.142	140.138	2.00499	-93.1557	133.822	-27.7906	-79.4736	131.56	-15.2614	-50.4763	158.058	-3.64617	-85.7976	145.831	-25.1645	-73.1337	143.397	-11.6722	-46.032	143.147	35.5987	-45.6609	144.984	31.4998	-18.1181	113.761	32.3513	-31.5401	
44	0.366667	93.4023	1.44503	-31.8937	76.667	0.248101	-50.7315	58.9538	1.68537	-74.2031	44.518	1.30525	-92.0791	107.026	-1.13972	-105.731	105.599	-31.9634	-101.689	109.983	-25.6672	-67.5652	126.636	-5.18601	-103.733	126.691	-35.4305	-93.0936	122.134	-19.8507	-57.1733	144.709	-11.3333	-94.7103	138.685	-36.4574	-77.9691	134.854	-20.2766	-51.0268	158.558	-9.71759	-84.7927	151.397	-32.6174	-70.4837	143.977	-16.5564	-48.5926	147.063	31.0904	-52.8769	148.183	24.3251	-17.8674	113.993	25.7942	-34.5557	
45	0.375	93.8459	-8.23952	-31.2669	75.74	-10.4826	-53.689	56.8874	-10.7137	-75.9379	42.346	-13.41	-92.4957	109.782	-11.4924	-102.411	106.721	-45.4296	-97.5773	107.926	-34.6723	-64.1796	126.412	-17.5257	-103.036	124.661	-47.7561	-92.2911	124.102	-29.1916	-55.2132	144.169	-18.443	-92.6092	140.627	-46.4712	-75.8144	134.243	-28.7501	-49.0927	162.489	-22.8686	-85.9299	152.725	-41.6507	-72.5057	149.729	-25.9865	-43.882	144.24	20.2714	-52.9581	150.348	19.9099	-19.128	111.216	17.626	-39.4796	
46	0.383333	89.4171	-17.7296	-29.6319	75.9016	-22.6165	-51.1061	55.152	-26.1453	-76.1671	45.377	-31.247	-88.2262	104.359	-28.9289	-100.018	108.843	-59.9563	-91.3504	109.136	-44.3921	-59.128	126.285	-32.1103	-99.6491	124.043	-61.5566	-84.0631	122.935	-39.5744	-51.6726	142.35	-31.9247	-91.271	139.461	-58.2592	-71.6183	132.83	-37.314	-46.8605	162.281	-36.2419	-84.6199	153.186	-53.571	-62.8843	145.483	-34.6546	-44.6853	147.324	9.52267	-58.0558	148.45	12.9437	-25.8104	113.679	8.45426	-40.101	
47	0.391667	91.6711	-24.644	-24.1835	70.4003	-32.8987	-46.2858	51.8394	-39.1099	-66.9246	42.1464	-45.4725	-84.807	100.013	-42.9172	-95.1822	107.172	-74.1313	-82.4427	102.23	-57.8401	-53.7717	125.247	-48.9943	-95.566	121.872	-74.3319	-73.3333	117.883	-46.2999	-44.9781	140.657	-46.1526	-87.2408	139.741	-69.3166	-63.0623	131.375	-47.2467	-42.5951	157.316	-48.0197	-79.8795	147.142	-63.7231	-60.9346	142.208	-43.7462	-40.1171	144.647	1.31854	-56.2653	143.922	5.87083	-23.4082	110.48	0.129042	-36.8325	
48	0.4	87.0435	-27.5052	-21.2148	67.6419	-36.9573	-39.3194	48.4767	-44.7624	-62.5744	36.8961	-52.3288	-73.1396	98.413	-59.2582	-90.773	94.83	-84.0377	-74.4126	100.196	-65.5103	-46.4857	119.842	-62.2746	-89.004	113.811	-84.3295	-66.4241	113.76	-54.0291	-39.2523	133.242	-61.0097	-81.7732	132.128	-80.5699	-58.2585	128.16	-50.0195	-36.0513	153.104	-60.1084	-73.1941	146.088	-74.9893	-49.6719	139.071	-50.5078	-34.8958	143.631	-9.95197	-54.5808	146.446	-1.02232	-27.202	109.877	-5.38875	-37.8562	
49	0.408333	87.0285	-25.566	-20.518	64.5631	-34.7184	-40.6256	44.1072	-41.5444	-54.2201	29.3551	-48.5918	-68.8109	90.7156	-62.6712	-81.5067	86.1541	-86.5985	-58.2387	92.195	-61.6713	-37.6832	107.068	-67.8164	-81.1122	104.745	-90.1861	-52.6465	107.25	-59.2994	-32.3535	126.992	-74.8818	-71.6268	117.284	-87.8026	-46.5004	119.826	-56.1977	-27.2434	141.251	-72.2009	-65.0566	133.999	-82.141	-38.7854	132.027	-56.7154	-26.3234	142.376	-21.5664	-56.015	144.711	-10.766	-26.835	111.681	-7.7948	-37.9461	
50	0.416667	80.558	-19.327	-18.7395	58.4069	-26.6722	-32.9541	39.0387	-32.1103	-48.9834	20.5342	-35.4335	-62.3137	75.0811	-66.2307	-73.3033	66.1955	-83.8705	-46.6226	78.411	-59.6514	-27.8136	90.9384	-78.4722	-69.9827	81.7402	-89.92	-43.1778	99.3343	-60.346	-22.9068	111.642	-83.5836	-60.2899	101.254	-90.7758	-33.1256	110.71	-58.8693	-17.2161	124.629	-84.647	-52.1142	111.782	-84.9042	-27.8403	125.04	-59.9326	-16.767	135.137	-33.5722	-54.9026	144.328	-18.5461	-27.1158	112.861	-12.3279	-35.797	
51	0.425	78.4004	-8.13766	-11.8694	56.0978	-14.9279	-31.5833	34.9455	-17.9323	-45.0324	15.6913	-16.965	-57.4355	62.8315	-60.0301	-63.1731	48.6514	-73.4755	-36.8867	63.9353	-47.857	-18.358	75.4115	-73.854	-59.2266	60.0691	-82.5349	-30.5169	81.7436	-50.481	-12.4686	91.8574	-85.2567	-47.5034	76.8212	-83.1495	-17.2254	95.3934	-56.6079	-6.07241	101.154	-89.318	-38.29	94.1541	-86.2044	-13.5744	108.782	-56.6978	-6.37815	127.039	-43.6587	-48.0576	142.72	-29.8667	-20.5198	109.542	-12.5248	-34.3591	
52	0.433333	77.3685	1.46635	-11.7924	52.4331	1.00958	-26.9747	31.3953	-0.890574	-44.0071	14.0057	6.38291	-52.1525	45.599	-52.0808	-53.1997	30.1858	-54.0277	-25.1191	57.756	-36.8652	-11.3821	55.1431	-68.7687	-49.251	39.9794	-66.68	-21.104	70.1634	-44.8593	-4.82903	66.6156	-77.5955	-37.4656	57.5411	-73.7179	-9.10293	80.1314	-49.1657	2.04554	80.3093	-84.5364	-29.3391	70.8548	-75.6036	-4.53089	90.8516	-53.7186	2.22804	117.157	-48.7451	-40.5885	131.792	-30.8621	-13.7731	105.486	-14.8546	-30.5164	
